# xmcd
#
# Track frame offsets: 
#        150
#        8780
#        19470
#        31642
#        40797
#        49222
#        59857
#        71517
#        82545
#        96185
#        108932
#        121172
#        132290
#        142255
#        152282
#        163240
#        174570
#        185332
#        197509
#        206387
#        217365
#        226880
#        237727
#        247080
#
# Disc length: 3476 seconds
#
# Revision: 2
# Processed by: cddbd v1.5.2PL0 Copyright (c) Steve Scherf et al.
# Submitted via: ExactAudioCopyFreeDBPlugin 1.0
#
DISCID=520d9218
DTITLE=Various Artist - All Night Soul Stomp!:  Dancefloor Boogaloo R
DTITLE=omp!
DYEAR=1998
DGENRE=Rhythm and Blues
TTITLE0=International Kansas City Playboys - Quittin' Time
TTITLE1=Soul Brothers Six - You Better Check Yourself
TTITLE2=E. Rodney Jones - R&B Time
TTITLE3=The Combo Kings - Mish Mash Soul
TTITLE4=Bobby James - Goin' Back to Philly
TTITLE5=Dave Mitchell and The Screamers - The Trip
TTITLE6=Watson and The Sherlocks - Funky Walk
TTITLE7=Bobby Powell - Funky Broadway 69
TTITLE8=Ray Agee - Real Real Love
TTITLE9=Russ Lewis - A Brand New Recipe
TTITLE10=King Coleman - Hang it Up
TTITLE11=Billy Hambrick - New York City Baby
TTITLE12=Pointdexer Brothers - (Git Your) Backfield in Motion
TTITLE13=International Kansas City Playboys - Everybody's Goin' Wild
TTITLE14=Watson and The Sherlocks - Stand on a Corner
TTITLE15=King Coleman - Get on Board
TTITLE16=Little Richard - It Ain't Watcha Do
TTITLE17=Phil Flowers - One More Hurt
TTITLE18=The Emperors - Mumble Shing-A-Lingy
TTITLE19=Sunny and The Sunliners - Hip Huggin' Mini
TTITLE20=The Interpretations - Soul Affection
TTITLE21=Mona Lisa - They Don't Know
TTITLE22=Roy Lee Johnson - Boogaloo #3
TTITLE23=Willy Baby - Hot Buns
EXTD=Record Stomp-S-4001  Limited Edition
EXTT0=
EXTT1=
EXTT2=
EXTT3=
EXTT4=
EXTT5=
EXTT6=
EXTT7=
EXTT8=
EXTT9=
EXTT10=
EXTT11=
EXTT12=
EXTT13=
EXTT14=
EXTT15=
EXTT16=
EXTT17=
EXTT18=
EXTT19=
EXTT20=
EXTT21=
EXTT22=
EXTT23=
PLAYORDER=
